<svg xmlns="http://www.w3.org/2000/svg" viewBox="0 0 1200 675" fill="none" font-family="ui-monospace, SFMono-Regular, Menlo, Monaco, monospace">
  <rect width="1200" height="675" fill="#09090B"/>
  <rect x="20" y="20" width="1160" height="635" rx="14" fill="#0F0F12" stroke="#27272A"/>

  <!-- Title bar -->
  <rect x="20" y="20" width="1160" height="56" rx="14" fill="#0A0A0C" stroke="#27272A"/>
  <circle cx="48" cy="48" r="6" fill="#EF4444"/>
  <circle cx="68" cy="48" r="6" fill="#F59E0B"/>
  <circle cx="88" cy="48" r="6" fill="#10B981"/>
  <text x="120" y="53" fill="#A1A1AA" font-size="13">github.com / sage-ideas / nexural / actions / run / 4892813</text>
  <text x="1100" y="53" fill="#71717A" font-size="11">2m 14s</text>

  <!-- Workflow header -->
  <text x="60" y="120" fill="#FAFAFA" font-size="20" font-weight="700">CI · Production Gate</text>
  <text x="60" y="145" fill="#A1A1AA" font-size="13">main · #4892 · pushed by jteixeira · idempotency-keys.ts</text>
  <rect x="60" y="160" width="80" height="22" rx="11" fill="#10B981" fill-opacity="0.12" stroke="#10B981" stroke-opacity="0.3"/>
  <circle cx="76" cy="171" r="3" fill="#10B981"/>
  <text x="86" y="175" fill="#10B981" font-size="11" font-weight="600">PASSED</text>

  <!-- Job rows -->
  <g font-size="13">
    <!-- Job 1 -->
    <rect x="60" y="210" width="1080" height="48" rx="8" fill="#0A0A0C" stroke="#27272A"/>
    <circle cx="84" cy="234" r="7" fill="#10B981"/>
    <path d="M80 234 l4 4 6-7" stroke="#09090B" stroke-width="2" fill="none" stroke-linecap="round"/>
    <text x="108" y="231" fill="#FAFAFA" font-weight="600">lint &amp; typecheck</text>
    <text x="108" y="248" fill="#71717A" font-size="11">eslint · typescript --noEmit · prettier --check</text>
    <text x="1040" y="240" fill="#A1A1AA" text-anchor="end">22s</text>
    <rect x="1060" y="225" width="60" height="20" rx="10" fill="#10B981" fill-opacity="0.12"/>
    <text x="1090" y="240" fill="#10B981" text-anchor="middle" font-size="11" font-weight="600">PASS</text>

    <!-- Job 2 -->
    <rect x="60" y="270" width="1080" height="48" rx="8" fill="#0A0A0C" stroke="#27272A"/>
    <circle cx="84" cy="294" r="7" fill="#10B981"/>
    <path d="M80 294 l4 4 6-7" stroke="#09090B" stroke-width="2" fill="none" stroke-linecap="round"/>
    <text x="108" y="291" fill="#FAFAFA" font-weight="600">unit tests · vitest</text>
    <text x="108" y="308" fill="#71717A" font-size="11">412 tests passed · 0 failed · 1.8s</text>
    <text x="1040" y="300" fill="#A1A1AA" text-anchor="end">31s</text>
    <rect x="1060" y="285" width="60" height="20" rx="10" fill="#10B981" fill-opacity="0.12"/>
    <text x="1090" y="300" fill="#10B981" text-anchor="middle" font-size="11" font-weight="600">PASS</text>

    <!-- Job 3 -->
    <rect x="60" y="330" width="1080" height="48" rx="8" fill="#0A0A0C" stroke="#27272A"/>
    <circle cx="84" cy="354" r="7" fill="#10B981"/>
    <path d="M80 354 l4 4 6-7" stroke="#09090B" stroke-width="2" fill="none" stroke-linecap="round"/>
    <text x="108" y="351" fill="#FAFAFA" font-weight="600">contract tests · pact</text>
    <text x="108" y="368" fill="#71717A" font-size="11">28 consumer · 14 provider · all matched</text>
    <text x="1040" y="360" fill="#A1A1AA" text-anchor="end">18s</text>
    <rect x="1060" y="345" width="60" height="20" rx="10" fill="#10B981" fill-opacity="0.12"/>
    <text x="1090" y="360" fill="#10B981" text-anchor="middle" font-size="11" font-weight="600">PASS</text>

    <!-- Job 4 -->
    <rect x="60" y="390" width="1080" height="48" rx="8" fill="#0A0A0C" stroke="#27272A"/>
    <circle cx="84" cy="414" r="7" fill="#10B981"/>
    <path d="M80 414 l4 4 6-7" stroke="#09090B" stroke-width="2" fill="none" stroke-linecap="round"/>
    <text x="108" y="411" fill="#FAFAFA" font-weight="600">e2e · playwright (chromium · firefox · webkit)</text>
    <text x="108" y="428" fill="#71717A" font-size="11">87 tests · 3 browsers · 0 flakes</text>
    <text x="1040" y="420" fill="#A1A1AA" text-anchor="end">48s</text>
    <rect x="1060" y="405" width="60" height="20" rx="10" fill="#10B981" fill-opacity="0.12"/>
    <text x="1090" y="420" fill="#10B981" text-anchor="middle" font-size="11" font-weight="600">PASS</text>

    <!-- Job 5 -->
    <rect x="60" y="450" width="1080" height="48" rx="8" fill="#0A0A0C" stroke="#27272A"/>
    <circle cx="84" cy="474" r="7" fill="#10B981"/>
    <path d="M80 474 l4 4 6-7" stroke="#09090B" stroke-width="2" fill="none" stroke-linecap="round"/>
    <text x="108" y="471" fill="#FAFAFA" font-weight="600">security scan · trivy + tfsec</text>
    <text x="108" y="488" fill="#71717A" font-size="11">0 critical · 0 high · 2 medium (waived with note)</text>
    <text x="1040" y="480" fill="#A1A1AA" text-anchor="end">14s</text>
    <rect x="1060" y="465" width="60" height="20" rx="10" fill="#10B981" fill-opacity="0.12"/>
    <text x="1090" y="480" fill="#10B981" text-anchor="middle" font-size="11" font-weight="600">PASS</text>

    <!-- Job 6 -->
    <rect x="60" y="510" width="1080" height="48" rx="8" fill="#0A0A0C" stroke="#27272A"/>
    <circle cx="84" cy="534" r="7" fill="#10B981"/>
    <path d="M80 534 l4 4 6-7" stroke="#09090B" stroke-width="2" fill="none" stroke-linecap="round"/>
    <text x="108" y="531" fill="#FAFAFA" font-weight="600">deploy · vercel preview → production</text>
    <text x="108" y="548" fill="#71717A" font-size="11">smoke tests passed · rollback ready · 30s revert window</text>
    <text x="1040" y="540" fill="#A1A1AA" text-anchor="end">21s</text>
    <rect x="1060" y="525" width="60" height="20" rx="10" fill="#10B981" fill-opacity="0.12"/>
    <text x="1090" y="540" fill="#10B981" text-anchor="middle" font-size="11" font-weight="600">PASS</text>
  </g>

  <!-- Footer -->
  <text x="60" y="610" fill="#71717A" font-size="11">6 jobs · 2m 14s total · all gates passed · merge unblocked</text>
  <text x="1140" y="610" fill="#06B6D4" font-size="11" text-anchor="end">sage-ideas/.github/workflows/ci.yml</text>
</svg>
