<svg xmlns="http://www.w3.org/2000/svg" viewBox="0 0 1200 675" fill="none" font-family="ui-sans-serif, system-ui, -apple-system">
  <rect width="1200" height="675" fill="#09090B"/>
  <rect x="20" y="20" width="1160" height="635" rx="14" fill="#0F0F12" stroke="#27272A"/>

  <!-- Header -->
  <rect x="20" y="20" width="1160" height="64" rx="14" fill="#0A0A0C" stroke="#27272A"/>
  <text x="60" y="51" fill="#FAFAFA" font-size="16" font-weight="700">Lighthouse CI · Production Budget</text>
  <text x="60" y="71" fill="#71717A" font-size="12" font-family="ui-monospace, monospace">www.sageideas.dev · build #4892 · enforced as CI gate</text>
  <rect x="1040" y="38" width="100" height="28" rx="14" fill="#10B981" fill-opacity="0.12" stroke="#10B981" stroke-opacity="0.4"/>
  <text x="1090" y="56" fill="#10B981" font-size="13" text-anchor="middle" font-weight="600">BUDGET MET</text>

  <!-- Score circles -->
  <g>
    <!-- Performance -->
    <circle cx="180" cy="220" r="70" fill="none" stroke="#27272A" stroke-width="10"/>
    <circle cx="180" cy="220" r="70" fill="none" stroke="#10B981" stroke-width="10" stroke-dasharray="425 440" stroke-linecap="round" transform="rotate(-90 180 220)"/>
    <text x="180" y="215" fill="#FAFAFA" font-size="40" font-weight="700" text-anchor="middle">98</text>
    <text x="180" y="240" fill="#10B981" font-size="11" text-anchor="middle" font-weight="600" font-family="ui-monospace, monospace">PERFORMANCE</text>
    <text x="180" y="320" fill="#71717A" font-size="11" text-anchor="middle">budget: ≥ 90</text>

    <!-- Accessibility -->
    <circle cx="425" cy="220" r="70" fill="none" stroke="#27272A" stroke-width="10"/>
    <circle cx="425" cy="220" r="70" fill="none" stroke="#10B981" stroke-width="10" stroke-dasharray="440 440" stroke-linecap="round" transform="rotate(-90 425 220)"/>
    <text x="425" y="215" fill="#FAFAFA" font-size="40" font-weight="700" text-anchor="middle">100</text>
    <text x="425" y="240" fill="#10B981" font-size="11" text-anchor="middle" font-weight="600" font-family="ui-monospace, monospace">ACCESSIBILITY</text>
    <text x="425" y="320" fill="#71717A" font-size="11" text-anchor="middle">budget: ≥ 95</text>

    <!-- Best Practices -->
    <circle cx="670" cy="220" r="70" fill="none" stroke="#27272A" stroke-width="10"/>
    <circle cx="670" cy="220" r="70" fill="none" stroke="#10B981" stroke-width="10" stroke-dasharray="430 440" stroke-linecap="round" transform="rotate(-90 670 220)"/>
    <text x="670" y="215" fill="#FAFAFA" font-size="40" font-weight="700" text-anchor="middle">100</text>
    <text x="670" y="240" fill="#10B981" font-size="11" text-anchor="middle" font-weight="600" font-family="ui-monospace, monospace">BEST PRACTICES</text>
    <text x="670" y="320" fill="#71717A" font-size="11" text-anchor="middle">budget: ≥ 95</text>

    <!-- SEO -->
    <circle cx="915" cy="220" r="70" fill="none" stroke="#27272A" stroke-width="10"/>
    <circle cx="915" cy="220" r="70" fill="none" stroke="#10B981" stroke-width="10" stroke-dasharray="440 440" stroke-linecap="round" transform="rotate(-90 915 220)"/>
    <text x="915" y="215" fill="#FAFAFA" font-size="40" font-weight="700" text-anchor="middle">100</text>
    <text x="915" y="240" fill="#10B981" font-size="11" text-anchor="middle" font-weight="600" font-family="ui-monospace, monospace">SEO</text>
    <text x="915" y="320" fill="#71717A" font-size="11" text-anchor="middle">budget: ≥ 95</text>
  </g>

  <!-- Core Web Vitals -->
  <text x="60" y="380" fill="#FAFAFA" font-size="13" font-weight="700" font-family="ui-monospace, monospace">CORE WEB VITALS · 75TH PERCENTILE</text>
  <g font-family="ui-monospace, monospace">
    <rect x="60" y="400" width="265" height="100" rx="10" fill="#0A0A0C" stroke="#27272A"/>
    <text x="80" y="425" fill="#71717A" font-size="11">LCP</text>
    <text x="80" y="465" fill="#10B981" font-size="32" font-weight="700">1.2s</text>
    <text x="80" y="488" fill="#71717A" font-size="11">budget: &lt; 2.5s</text>

    <rect x="345" y="400" width="265" height="100" rx="10" fill="#0A0A0C" stroke="#27272A"/>
    <text x="365" y="425" fill="#71717A" font-size="11">CLS</text>
    <text x="365" y="465" fill="#10B981" font-size="32" font-weight="700">0.02</text>
    <text x="365" y="488" fill="#71717A" font-size="11">budget: &lt; 0.1</text>

    <rect x="630" y="400" width="265" height="100" rx="10" fill="#0A0A0C" stroke="#27272A"/>
    <text x="650" y="425" fill="#71717A" font-size="11">INP</text>
    <text x="650" y="465" fill="#10B981" font-size="32" font-weight="700">86ms</text>
    <text x="650" y="488" fill="#71717A" font-size="11">budget: &lt; 200ms</text>

    <rect x="915" y="400" width="225" height="100" rx="10" fill="#0A0A0C" stroke="#27272A"/>
    <text x="935" y="425" fill="#71717A" font-size="11">TBT</text>
    <text x="935" y="465" fill="#10B981" font-size="32" font-weight="700">12ms</text>
    <text x="935" y="488" fill="#71717A" font-size="11">budget: &lt; 200ms</text>
  </g>

  <!-- Trend chart -->
  <text x="60" y="540" fill="#FAFAFA" font-size="13" font-weight="700" font-family="ui-monospace, monospace">PERFORMANCE TREND · LAST 30 BUILDS</text>
  <g>
    <line x1="60" y1="620" x2="1140" y2="620" stroke="#27272A"/>
    <line x1="60" y1="565" x2="1140" y2="565" stroke="#1F1F23" stroke-dasharray="2 4"/>
    <polyline fill="none" stroke="#06B6D4" stroke-width="2" points="60,608 96,605 132,602 168,600 204,602 240,598 276,596 312,594 348,597 384,595 420,592 456,590 492,591 528,587 564,585 600,583 636,584 672,581 708,580 744,578 780,580 816,576 852,574 888,572 924,571 960,570 996,568 1032,567 1068,566 1104,565 1140,564"/>
    <circle cx="1140" cy="564" r="5" fill="#06B6D4"/>
    <text x="60" y="640" fill="#71717A" font-size="10" font-family="ui-monospace, monospace">30 builds ago</text>
    <text x="1140" y="640" fill="#06B6D4" font-size="10" text-anchor="end" font-family="ui-monospace, monospace">today · 98</text>
  </g>
</svg>
