<svg xmlns="http://www.w3.org/2000/svg" viewBox="0 0 1200 675" fill="none" font-family="ui-sans-serif, system-ui, -apple-system">
  <rect width="1200" height="675" fill="#09090B"/>
  <rect x="20" y="20" width="1160" height="635" rx="14" fill="#0F0F12" stroke="#27272A"/>

  <!-- Header -->
  <rect x="20" y="20" width="1160" height="56" rx="14" fill="#0A0A0C" stroke="#27272A"/>
  <text x="60" y="50" fill="#FAFAFA" font-size="15" font-weight="700">Visual Diff · alphastream/strategy-dashboard</text>
  <text x="60" y="68" fill="#71717A" font-size="11" font-family="ui-monospace, monospace">PR #142 · base: main · 1 visual change · 0 unintended</text>
  <rect x="1020" y="36" width="120" height="28" rx="14" fill="#F59E0B" fill-opacity="0.12" stroke="#F59E0B" stroke-opacity="0.4"/>
  <text x="1080" y="54" fill="#F59E0B" font-size="12" text-anchor="middle" font-weight="600">REVIEW REQUIRED</text>

  <!-- Side-by-side diff -->
  <g>
    <!-- BASE -->
    <text x="60" y="110" fill="#71717A" font-size="11" font-family="ui-monospace, monospace">BASE · main</text>
    <rect x="60" y="120" width="535" height="380" rx="10" fill="#0A0A0C" stroke="#27272A"/>
    <!-- mock chart base -->
    <rect x="80" y="145" width="495" height="60" rx="6" fill="#0F0F12"/>
    <text x="100" y="170" fill="#A1A1AA" font-size="11" font-family="ui-monospace, monospace">PORTFOLIO · 30D</text>
    <text x="100" y="190" fill="#FAFAFA" font-size="20" font-weight="700">$148,224.10</text>
    <text x="555" y="180" fill="#10B981" font-size="13" text-anchor="end" font-family="ui-monospace, monospace">+12.4%</text>

    <rect x="80" y="220" width="495" height="260" rx="6" fill="#0A0A0C" stroke="#1F1F23"/>
    <line x1="100" y1="450" x2="555" y2="450" stroke="#1F1F23"/>
    <line x1="100" y1="380" x2="555" y2="380" stroke="#1F1F23" stroke-dasharray="2 4"/>
    <line x1="100" y1="310" x2="555" y2="310" stroke="#1F1F23" stroke-dasharray="2 4"/>
    <polyline fill="none" stroke="#06B6D4" stroke-width="2" points="100,440 130,425 160,420 190,408 220,415 250,395 280,388 310,372 340,378 370,360 400,348 430,340 460,330 490,318 520,305 555,295"/>
    <polyline fill="#06B6D4" fill-opacity="0.06" stroke="none" points="100,440 130,425 160,420 190,408 220,415 250,395 280,388 310,372 340,378 370,360 400,348 430,340 460,330 490,318 520,305 555,295 555,470 100,470"/>

    <!-- HEAD -->
    <text x="625" y="110" fill="#71717A" font-size="11" font-family="ui-monospace, monospace">HEAD · feature/dashboard-tooltip</text>
    <rect x="625" y="120" width="535" height="380" rx="10" fill="#0A0A0C" stroke="#8B5CF6" stroke-width="1.5"/>
    <rect x="645" y="145" width="495" height="60" rx="6" fill="#0F0F12"/>
    <text x="665" y="170" fill="#A1A1AA" font-size="11" font-family="ui-monospace, monospace">PORTFOLIO · 30D</text>
    <text x="665" y="190" fill="#FAFAFA" font-size="20" font-weight="700">$148,224.10</text>
    <text x="1120" y="180" fill="#10B981" font-size="13" text-anchor="end" font-family="ui-monospace, monospace">+12.4%</text>

    <rect x="645" y="220" width="495" height="260" rx="6" fill="#0A0A0C" stroke="#1F1F23"/>
    <line x1="665" y1="450" x2="1120" y2="450" stroke="#1F1F23"/>
    <line x1="665" y1="380" x2="1120" y2="380" stroke="#1F1F23" stroke-dasharray="2 4"/>
    <line x1="665" y1="310" x2="1120" y2="310" stroke="#1F1F23" stroke-dasharray="2 4"/>
    <polyline fill="none" stroke="#06B6D4" stroke-width="2" points="665,440 695,425 725,420 755,408 785,415 815,395 845,388 875,372 905,378 935,360 965,348 995,340 1025,330 1055,318 1085,305 1120,295"/>
    <polyline fill="#06B6D4" fill-opacity="0.06" stroke="none" points="665,440 695,425 725,420 755,408 785,415 815,395 845,388 875,372 905,378 935,360 965,348 995,340 1025,330 1055,318 1085,305 1120,295 1120,470 665,470"/>
    <!-- new tooltip -->
    <rect x="1000" y="282" width="120" height="50" rx="6" fill="#0F0F12" stroke="#8B5CF6"/>
    <circle cx="1085" cy="305" r="4" fill="#8B5CF6"/>
    <text x="1010" y="302" fill="#A1A1AA" font-size="10" font-family="ui-monospace, monospace">May 03</text>
    <text x="1010" y="320" fill="#FAFAFA" font-size="12" font-family="ui-monospace, monospace" font-weight="700">$148,224</text>
  </g>

  <!-- Footer -->
  <text x="60" y="540" fill="#FAFAFA" font-size="13" font-weight="700">1 visual change detected</text>
  <text x="60" y="565" fill="#A1A1AA" font-size="12">Tooltip on hover · expected (matches PR description). Approve to update baseline.</text>
  <text x="60" y="595" fill="#71717A" font-size="11" font-family="ui-monospace, monospace">12 other snapshots compared · all unchanged · build passes</text>

  <rect x="900" y="540" width="240" height="64" rx="10" fill="#06B6D4" fill-opacity="0.08" stroke="#06B6D4" stroke-opacity="0.4"/>
  <text x="1020" y="565" fill="#06B6D4" font-size="11" text-anchor="middle" font-weight="700" font-family="ui-monospace, monospace">APPROVE BASELINE</text>
  <text x="1020" y="585" fill="#71717A" font-size="10" text-anchor="middle" font-family="ui-monospace, monospace">expected change</text>
</svg>
