<svg xmlns="http://www.w3.org/2000/svg" viewBox="0 0 1200 675" fill="none" font-family="ui-monospace, SFMono-Regular, Menlo, Monaco, monospace">
  <rect width="1200" height="675" fill="#09090B"/>
  <rect x="20" y="20" width="1160" height="635" rx="14" fill="#0F0F12" stroke="#27272A"/>

  <!-- Top bar -->
  <rect x="20" y="20" width="1160" height="56" rx="14" fill="#0A0A0C" stroke="#27272A"/>
  <text x="60" y="53" fill="#FAFAFA" font-size="14" font-weight="700">▶ Playwright Test Report</text>
  <text x="60" y="68" fill="#71717A" font-size="11">nexural · main · run #4892 · 2m 14s</text>
  <text x="1140" y="50" fill="#10B981" font-size="13" text-anchor="end" font-weight="600">61 / 61 passed</text>
  <text x="1140" y="65" fill="#71717A" font-size="11" text-anchor="end">0 failed · 0 flaky · 0 skipped</text>

  <!-- Summary cards -->
  <g>
    <rect x="60" y="100" width="260" height="100" rx="10" fill="#0A0A0C" stroke="#27272A"/>
    <text x="80" y="125" fill="#71717A" font-size="11">TOTAL TESTS</text>
    <text x="80" y="160" fill="#FAFAFA" font-size="32" font-weight="700">61</text>
    <text x="80" y="185" fill="#10B981" font-size="11">▲ +4 vs last run</text>

    <rect x="340" y="100" width="260" height="100" rx="10" fill="#0A0A0C" stroke="#27272A"/>
    <text x="360" y="125" fill="#71717A" font-size="11">PASS RATE (30 RUNS)</text>
    <text x="360" y="160" fill="#10B981" font-size="32" font-weight="700">100%</text>
    <text x="360" y="185" fill="#71717A" font-size="11">no flakes detected</text>

    <rect x="620" y="100" width="260" height="100" rx="10" fill="#0A0A0C" stroke="#27272A"/>
    <text x="640" y="125" fill="#71717A" font-size="11">DURATION</text>
    <text x="640" y="160" fill="#FAFAFA" font-size="32" font-weight="700">2:14</text>
    <text x="640" y="185" fill="#A1A1AA" font-size="11">parallel · 4 workers · 3 browsers</text>

    <rect x="900" y="100" width="240" height="100" rx="10" fill="#0A0A0C" stroke="#27272A"/>
    <text x="920" y="125" fill="#71717A" font-size="11">COVERAGE</text>
    <text x="920" y="160" fill="#FAFAFA" font-size="32" font-weight="700">87%</text>
    <text x="920" y="185" fill="#06B6D4" font-size="11">critical journeys: 100%</text>
  </g>

  <!-- Test list -->
  <g font-size="12">
    <rect x="60" y="220" width="1080" height="48" rx="8" fill="#0A0A0C" stroke="#27272A"/>
    <circle cx="84" cy="244" r="6" fill="#10B981"/>
    <text x="108" y="241" fill="#FAFAFA">trading flow › place market order › fills correctly</text>
    <text x="108" y="258" fill="#71717A" font-size="10">specs/trading.spec.ts:42</text>
    <text x="1120" y="248" fill="#A1A1AA" text-anchor="end">3.4s</text>

    <rect x="60" y="278" width="1080" height="48" rx="8" fill="#0A0A0C" stroke="#27272A"/>
    <circle cx="84" cy="302" r="6" fill="#10B981"/>
    <text x="108" y="299" fill="#FAFAFA">stripe webhook › invoice.paid › idempotent retry</text>
    <text x="108" y="316" fill="#71717A" font-size="10">specs/billing.spec.ts:108</text>
    <text x="1120" y="306" fill="#A1A1AA" text-anchor="end">2.1s</text>

    <rect x="60" y="336" width="1080" height="48" rx="8" fill="#0A0A0C" stroke="#27272A"/>
    <circle cx="84" cy="360" r="6" fill="#10B981"/>
    <text x="108" y="357" fill="#FAFAFA">stripe webhook › subscription.updated › state transitions</text>
    <text x="108" y="374" fill="#71717A" font-size="10">specs/billing.spec.ts:142</text>
    <text x="1120" y="364" fill="#A1A1AA" text-anchor="end">2.8s</text>

    <rect x="60" y="394" width="1080" height="48" rx="8" fill="#0A0A0C" stroke="#27272A"/>
    <circle cx="84" cy="418" r="6" fill="#10B981"/>
    <text x="108" y="415" fill="#FAFAFA">discord bot › portfolio query › returns live data</text>
    <text x="108" y="432" fill="#71717A" font-size="10">specs/bot.spec.ts:67</text>
    <text x="1120" y="422" fill="#A1A1AA" text-anchor="end">5.2s</text>

    <rect x="60" y="452" width="1080" height="48" rx="8" fill="#0A0A0C" stroke="#27272A"/>
    <circle cx="84" cy="476" r="6" fill="#10B981"/>
    <text x="108" y="473" fill="#FAFAFA">auth › row-level security › cross-tenant access blocked</text>
    <text x="108" y="490" fill="#71717A" font-size="10">specs/auth.spec.ts:21</text>
    <text x="1120" y="480" fill="#A1A1AA" text-anchor="end">1.4s</text>

    <rect x="60" y="510" width="1080" height="48" rx="8" fill="#0A0A0C" stroke="#27272A"/>
    <circle cx="84" cy="534" r="6" fill="#10B981"/>
    <text x="108" y="531" fill="#FAFAFA">portfolio dashboard › realtime updates › supabase channel</text>
    <text x="108" y="548" fill="#71717A" font-size="10">specs/portfolio.spec.ts:89</text>
    <text x="1120" y="538" fill="#A1A1AA" text-anchor="end">4.1s</text>
  </g>

  <text x="60" y="610" fill="#71717A" font-size="11">+ 55 more tests · view full report</text>
  <text x="1140" y="610" fill="#06B6D4" font-size="11" text-anchor="end">playwright-report/index.html</text>
</svg>
